<svg width="512" height="512" viewBox="0 0 512 512" fill="none" xmlns="http://www.w3.org/2000/svg">
<rect width="512" height="512" rx="50" fill="#BA4949"/>
<circle cx="255.558" cy="255.558" r="222.109" fill="#BA4949" stroke="white" stroke-width="10"/>
<path d="M90.8422 302.58V296.35L121.266 262.152C125.237 257.665 128.436 253.829 130.861 250.646C133.287 247.463 135.045 244.522 136.137 241.824C137.258 239.125 137.819 236.321 137.819 233.411C137.819 229.863 136.986 226.771 135.318 224.133C133.681 221.465 131.422 219.389 128.542 217.903C125.662 216.418 122.418 215.675 118.81 215.675C114.99 215.675 111.64 216.493 108.76 218.13C105.91 219.768 103.697 222.011 102.12 224.861C100.544 227.711 99.7555 230.985 99.7555 234.684H91.6153C91.6153 229.53 92.7976 224.967 95.1624 220.995C97.5575 216.994 100.817 213.856 104.94 211.582C109.093 209.308 113.793 208.171 119.038 208.171C124.222 208.171 128.83 209.293 132.862 211.536C136.895 213.75 140.063 216.766 142.367 220.586C144.671 224.406 145.823 228.681 145.823 233.411C145.823 236.836 145.217 240.156 144.004 243.37C142.822 246.584 140.775 250.161 137.865 254.102C134.954 258.044 130.922 262.864 125.768 268.564L102.666 294.349V294.94H148.734V302.58H90.8422Z" fill="white"/>
<path d="M196.245 303.853C191.061 303.853 186.422 302.807 182.329 300.716C178.267 298.593 175.023 295.683 172.597 291.984C170.202 288.285 168.929 284.056 168.777 279.296H177.009C177.281 284.238 179.222 288.301 182.83 291.484C186.437 294.637 190.909 296.213 196.245 296.213C200.399 296.213 204.097 295.228 207.341 293.257C210.585 291.256 213.117 288.528 214.936 285.072C216.785 281.585 217.71 277.659 217.71 273.293C217.68 268.746 216.694 264.744 214.754 261.288C212.814 257.801 210.176 255.072 206.841 253.102C203.536 251.131 199.823 250.146 195.699 250.146C192.577 250.116 189.515 250.631 186.513 251.692C183.512 252.753 181.01 254.117 179.009 255.785L170.505 254.693L176.099 209.444H222.121V217.085H183.239L179.51 248.236H179.965C182.026 246.508 184.527 245.098 187.468 244.007C190.439 242.915 193.577 242.369 196.882 242.369C202.369 242.369 207.296 243.688 211.662 246.326C216.058 248.963 219.529 252.602 222.076 257.24C224.653 261.848 225.941 267.154 225.941 273.157C225.941 279.039 224.653 284.299 222.076 288.937C219.529 293.545 216.012 297.184 211.525 299.852C207.068 302.519 201.975 303.853 196.245 303.853Z" fill="white"/>
<path d="M252.067 288.619C250.279 288.619 248.732 287.982 247.429 286.709C246.155 285.405 245.519 283.859 245.519 282.07C245.519 280.251 246.155 278.705 247.429 277.432C248.732 276.158 250.279 275.522 252.067 275.522C253.886 275.522 255.433 276.158 256.706 277.432C257.979 278.705 258.616 280.251 258.616 282.07C258.616 283.253 258.313 284.344 257.706 285.345C257.13 286.345 256.342 287.148 255.342 287.755C254.371 288.331 253.28 288.619 252.067 288.619ZM252.067 241.369C250.279 241.369 248.732 240.732 247.429 239.459C246.155 238.155 245.519 236.609 245.519 234.82C245.519 233.032 246.155 231.501 247.429 230.227C248.732 228.924 250.279 228.272 252.067 228.272C253.886 228.272 255.433 228.924 256.706 230.227C257.979 231.501 258.616 233.032 258.616 234.82C258.616 236.003 258.313 237.094 257.706 238.095C257.13 239.095 256.342 239.899 255.342 240.505C254.371 241.081 253.28 241.369 252.067 241.369Z" fill="white"/>
<path d="M308.606 303.853C302.057 303.853 296.464 301.974 291.825 298.214C287.217 294.425 283.67 288.952 281.184 281.797C278.728 274.642 277.5 266.047 277.5 256.012C277.5 246.007 278.728 237.443 281.184 230.318C283.67 223.163 287.232 217.691 291.871 213.901C296.539 210.081 302.118 208.171 308.606 208.171C315.094 208.171 320.657 210.081 325.296 213.901C329.965 217.691 333.527 223.163 335.983 230.318C338.469 237.443 339.712 246.007 339.712 256.012C339.712 266.047 338.469 274.642 335.983 281.797C333.527 288.952 329.98 294.425 325.341 298.214C320.733 301.974 315.154 303.853 308.606 303.853ZM308.606 296.213C315.791 296.213 321.4 292.712 325.432 285.708C329.464 278.675 331.48 268.776 331.48 256.012C331.48 247.523 330.556 240.277 328.706 234.275C326.887 228.241 324.265 223.633 320.839 220.45C317.443 217.266 313.366 215.675 308.606 215.675C301.481 215.675 295.888 219.222 291.825 226.316C287.762 233.38 285.731 243.279 285.731 256.012C285.731 264.501 286.641 271.747 288.46 277.75C290.309 283.753 292.932 288.331 296.327 291.484C299.753 294.637 303.846 296.213 308.606 296.213Z" fill="white"/>
<path d="M387.144 303.853C380.595 303.853 375.001 301.974 370.363 298.214C365.754 294.425 362.207 288.952 359.721 281.797C357.266 274.642 356.038 266.047 356.038 256.012C356.038 246.007 357.266 237.443 359.721 230.318C362.207 223.163 365.77 217.691 370.408 213.901C375.077 210.081 380.656 208.171 387.144 208.171C393.631 208.171 399.195 210.081 403.833 213.901C408.502 217.691 412.065 223.163 414.52 230.318C417.006 237.443 418.249 246.007 418.249 256.012C418.249 266.047 417.006 274.642 414.52 281.797C412.065 288.952 408.517 294.425 403.879 298.214C399.271 301.974 393.692 303.853 387.144 303.853ZM387.144 296.213C394.329 296.213 399.938 292.712 403.97 285.708C408.002 278.675 410.018 268.776 410.018 256.012C410.018 247.523 409.093 240.277 407.244 234.275C405.425 228.241 402.803 223.633 399.377 220.45C395.981 217.266 391.903 215.675 387.144 215.675C380.019 215.675 374.425 219.222 370.363 226.316C366.3 233.38 364.269 243.279 364.269 256.012C364.269 264.501 365.178 271.747 366.998 277.75C368.847 283.753 371.469 288.331 374.865 291.484C378.291 294.637 382.384 296.213 387.144 296.213Z" fill="white"/>
</svg>
