<svg width="192" height="192" viewBox="0 0 192 192" fill="none" xmlns="http://www.w3.org/2000/svg">
<rect width="192" height="192" rx="50" fill="#BA4949"/>
<circle cx="95.8341" cy="95.8341" r="83.4159" fill="#BA4949" stroke="white" stroke-width="3.5"/>
<path d="M34.0659 113.468V111.131L45.4747 98.3069C46.9641 96.6243 48.1635 95.1861 49.0731 93.9923C49.9826 92.7986 50.642 91.6958 51.0513 90.6839C51.4719 89.6721 51.6823 88.6204 51.6823 87.529C51.6823 86.1988 51.3696 85.0392 50.7443 84.05C50.1304 83.0496 49.2834 82.2708 48.2033 81.7137C47.1233 81.1566 45.9068 80.8781 44.5538 80.8781C43.1213 80.8781 41.8651 81.185 40.785 81.799C39.7163 82.4129 38.8864 83.2542 38.2952 84.3229C37.704 85.3916 37.4084 86.6195 37.4084 88.0065H34.3558C34.3558 86.0737 34.7992 84.3627 35.686 82.8733C36.5841 81.3726 37.8063 80.1959 39.3525 79.3432C40.9101 78.4905 42.6723 78.0642 44.6391 78.0642C46.5832 78.0642 48.3113 78.4849 49.8234 79.3262C51.3355 80.1561 52.5236 81.2873 53.3876 82.7199C54.2517 84.1524 54.6837 85.7554 54.6837 87.529C54.6837 88.8137 54.4563 90.0586 54.0016 91.2637C53.5582 92.4689 52.7908 93.8104 51.6993 95.2884C50.6079 96.7664 49.0958 98.5741 47.1631 100.711L38.4998 110.381V110.603H55.7751V113.468H34.0659Z" fill="white"/>
<path d="M73.5919 113.945C71.6478 113.945 69.9084 113.553 68.3735 112.768C66.8501 111.973 65.6336 110.881 64.724 109.494C63.8259 108.107 63.3484 106.521 63.2915 104.736H66.3782C66.4806 106.589 67.2082 108.113 68.5611 109.306C69.914 110.489 71.591 111.08 73.5919 111.08C75.1495 111.08 76.5365 110.711 77.753 109.972C78.9695 109.221 79.9188 108.198 80.601 106.902C81.2945 105.594 81.6413 104.122 81.6413 102.485C81.6299 100.78 81.2604 99.2789 80.5328 97.9829C79.8051 96.6754 78.816 95.6522 77.5654 94.9132C76.3262 94.1742 74.9335 93.8047 73.3873 93.8047C72.2163 93.7934 71.068 93.9866 69.9425 94.3845C68.8169 94.7825 67.879 95.2941 67.1286 95.9194L63.9396 95.5101L66.0372 78.5417H83.2955V81.4067H68.7146L67.3162 93.0885H67.4867C68.2598 92.4404 69.1978 91.9118 70.3006 91.5025C71.4148 91.0932 72.5915 90.8885 73.8307 90.8885C75.8885 90.8885 77.736 91.3831 79.3731 92.3722C81.0216 93.3613 82.3234 94.7256 83.2784 96.4651C84.2448 98.1932 84.728 100.183 84.728 102.434C84.728 104.639 84.2448 106.612 83.2784 108.351C82.3234 110.08 81.0046 111.444 79.322 112.444C77.6507 113.445 75.7407 113.945 73.5919 113.945Z" fill="white"/>
<path d="M94.5253 108.232C93.8545 108.232 93.2747 107.993 92.7858 107.516C92.3083 107.027 92.0696 106.447 92.0696 105.776C92.0696 105.094 92.3083 104.514 92.7858 104.037C93.2747 103.559 93.8545 103.321 94.5253 103.321C95.2074 103.321 95.7873 103.559 96.2648 104.037C96.7423 104.514 96.981 105.094 96.981 105.776C96.981 106.22 96.8673 106.629 96.6399 107.004C96.4239 107.379 96.1283 107.681 95.7531 107.908C95.3893 108.124 94.98 108.232 94.5253 108.232ZM94.5253 90.5134C93.8545 90.5134 93.2747 90.2746 92.7858 89.7971C92.3083 89.3082 92.0696 88.7284 92.0696 88.0576C92.0696 87.3869 92.3083 86.8127 92.7858 86.3352C93.2747 85.8464 93.8545 85.6019 94.5253 85.6019C95.2074 85.6019 95.7873 85.8464 96.2648 86.3352C96.7423 86.8127 96.981 87.3869 96.981 88.0576C96.981 88.501 96.8673 88.9103 96.6399 89.2855C96.4239 89.6607 96.1283 89.962 95.7531 90.1894C95.3893 90.4054 94.98 90.5134 94.5253 90.5134Z" fill="white"/>
<path d="M115.727 113.945C113.272 113.945 111.174 113.24 109.434 111.83C107.706 110.409 106.376 108.357 105.444 105.674C104.523 102.991 104.063 99.7678 104.063 96.0046C104.063 92.2528 104.523 89.0411 105.444 86.3693C106.376 83.6862 107.712 81.6341 109.451 80.213C111.202 78.7805 113.294 78.0642 115.727 78.0642C118.16 78.0642 120.246 78.7805 121.986 80.213C123.737 81.6341 125.073 83.6862 125.994 86.3693C126.926 89.0411 127.392 92.2528 127.392 96.0046C127.392 99.7678 126.926 102.991 125.994 105.674C125.073 108.357 123.742 110.409 122.003 111.83C120.275 113.24 118.183 113.945 115.727 113.945ZM115.727 111.08C118.422 111.08 120.525 109.767 122.037 107.141C123.549 104.503 124.305 100.791 124.305 96.0046C124.305 92.8213 123.958 90.1041 123.265 87.853C122.583 85.5906 121.599 83.8624 120.315 82.6687C119.041 81.4749 117.512 80.8781 115.727 80.8781C113.055 80.8781 110.958 82.2082 109.434 84.8686C107.911 87.5176 107.149 91.2296 107.149 96.0046C107.149 99.188 107.49 101.905 108.172 104.156C108.866 106.407 109.849 108.124 111.123 109.306C112.407 110.489 113.942 111.08 115.727 111.08Z" fill="white"/>
<path d="M145.179 113.945C142.723 113.945 140.626 113.24 138.886 111.83C137.158 110.409 135.828 108.357 134.896 105.674C133.975 102.991 133.514 99.7678 133.514 96.0046C133.514 92.2528 133.975 89.0411 134.896 86.3693C135.828 83.6862 137.164 81.6341 138.903 80.213C140.654 78.7805 142.746 78.0642 145.179 78.0642C147.612 78.0642 149.698 78.7805 151.438 80.213C153.188 81.6341 154.524 83.6862 155.445 86.3693C156.377 89.0411 156.844 92.2528 156.844 96.0046C156.844 99.7678 156.377 102.991 155.445 105.674C154.524 108.357 153.194 110.409 151.455 111.83C149.727 113.24 147.635 113.945 145.179 113.945ZM145.179 111.08C147.873 111.08 149.977 109.767 151.489 107.141C153.001 104.503 153.757 100.791 153.757 96.0046C153.757 92.8213 153.41 90.1041 152.717 87.853C152.034 85.5906 151.051 83.8624 149.766 82.6687C148.493 81.4749 146.964 80.8781 145.179 80.8781C142.507 80.8781 140.41 82.2082 138.886 84.8686C137.363 87.5176 136.601 91.2296 136.601 96.0046C136.601 99.188 136.942 101.905 137.624 104.156C138.318 106.407 139.301 108.124 140.574 109.306C141.859 110.489 143.394 111.08 145.179 111.08Z" fill="white"/>
</svg>
